<svg id="ELEMENT_3_" xmlns="http://www.w3.org/2000/svg" xmlns:xlink="http://www.w3.org/1999/xlink" width="1369" height="912" viewBox="0 0 1369 912">
  <defs>
    <linearGradient id="linear-gradient" y1="0.5" x2="1" y2="0.5" gradientUnits="objectBoundingBox">
      <stop offset="0" stop-color="#441066"/>
      <stop offset="1" stop-color="#a9008d"/>
    </linearGradient>
    <clipPath id="clip-path">
      <rect id="Rectangle_35" data-name="Rectangle 35" width="1369" height="912"/>
    </clipPath>
    <linearGradient id="linear-gradient-2" x1="0.293" y1="0.988" x2="0.145" y2="0.022" gradientUnits="objectBoundingBox">
      <stop offset="0" stop-color="#f70068"/>
      <stop offset="1" stop-color="#441066"/>
    </linearGradient>
    <linearGradient id="linear-gradient-3" x1="0.23" y1="0.739" x2="0.74" y2="0.175" gradientUnits="objectBoundingBox">
      <stop offset="0.005" stop-color="#ff0068"/>
      <stop offset="1" stop-color="#ffc107"/>
    </linearGradient>
    <linearGradient id="linear-gradient-4" x1="0.23" y1="0.738" x2="0.741" y2="0.172" xlink:href="#linear-gradient"/>
    <linearGradient id="linear-gradient-5" x1="-5.691" y1="5.142" x2="-2.596" y2="5.142" xlink:href="#linear-gradient-3"/>
    <linearGradient id="linear-gradient-6" x1="1.217" y1="-0.192" x2="0.575" y2="0.406" xlink:href="#linear-gradient-3"/>
    <linearGradient id="linear-gradient-7" x1="0.001" y1="0.498" x2="1.006" y2="0.498" xlink:href="#linear-gradient-3"/>
    <linearGradient id="linear-gradient-8" x1="-0.006" y1="0.504" x2="0.993" y2="0.504" xlink:href="#linear-gradient-3"/>
    <linearGradient id="linear-gradient-9" x1="-0.001" y1="0.498" x2="0.997" y2="0.498" xlink:href="#linear-gradient-3"/>
    <linearGradient id="linear-gradient-10" x1="0.001" y1="0.502" x2="1.001" y2="0.502" xlink:href="#linear-gradient-3"/>
    <linearGradient id="linear-gradient-11" x1="0.001" y1="0.5" x2="1.001" y2="0.5" xlink:href="#linear-gradient-3"/>
    <linearGradient id="linear-gradient-13" x1="0.377" y1="0.208" x2="0.632" y2="1.459" xlink:href="#linear-gradient-2"/>
    <linearGradient id="linear-gradient-14" x1="0.372" y1="0.198" x2="0.619" y2="1.256" xlink:href="#linear-gradient-2"/>
    <linearGradient id="linear-gradient-15" x1="-0.001" y1="0.501" x2="0.996" y2="0.501" xlink:href="#linear-gradient"/>
    <linearGradient id="linear-gradient-16" x1="0.799" y1="0.157" x2="-0.163" y2="1.205" xlink:href="#linear-gradient-2"/>
    <linearGradient id="linear-gradient-17" x1="3.992" y1="3.069" x2="2.825" y2="4.142" xlink:href="#linear-gradient-3"/>
    <linearGradient id="linear-gradient-18" x1="-0.031" y1="-1.031" x2="-1.295" y2="0.131" xlink:href="#linear-gradient"/>
    <linearGradient id="linear-gradient-19" x1="0.881" y1="0.17" x2="0.076" y2="0.865" xlink:href="#linear-gradient"/>
    <linearGradient id="linear-gradient-20" x1="0.883" y1="0.17" x2="0.077" y2="0.865" xlink:href="#linear-gradient-3"/>
    <linearGradient id="linear-gradient-21" x1="0.002" y1="0.5" x2="0.998" y2="0.5" xlink:href="#linear-gradient-3"/>
    <linearGradient id="linear-gradient-22" x1="0.542" y1="0.781" x2="0.394" y2="-0.185" xlink:href="#linear-gradient-2"/>
    <linearGradient id="linear-gradient-23" x1="0.539" y1="0.628" x2="0.464" y2="-0.214" xlink:href="#linear-gradient-2"/>
    <linearGradient id="linear-gradient-24" x1="0.373" y1="0.922" x2="0.691" y2="-0.145" xlink:href="#linear-gradient"/>
    <linearGradient id="linear-gradient-25" x1="0.374" y1="1.41" x2="0.85" y2="-0.442" xlink:href="#linear-gradient"/>
    <linearGradient id="linear-gradient-26" x1="-0.008" y1="0.5" x2="1.004" y2="0.5" xlink:href="#linear-gradient-3"/>
    <linearGradient id="linear-gradient-27" x1="-0.013" y1="0.506" x2="1" y2="0.506" xlink:href="#linear-gradient-3"/>
    <linearGradient id="linear-gradient-28" x1="0.521" y1="-0.032" x2="0.297" y2="0.996" xlink:href="#linear-gradient-3"/>
    <linearGradient id="linear-gradient-29" x1="0.501" y1="-0.022" x2="0.452" y2="1.193" xlink:href="#linear-gradient"/>
    <linearGradient id="linear-gradient-30" x1="0.941" y1="0.221" x2="-0.006" y2="0.557" xlink:href="#linear-gradient-2"/>
    <linearGradient id="linear-gradient-31" x1="0.151" y1="0.081" x2="1.214" y2="0.834" xlink:href="#linear-gradient-2"/>
    <linearGradient id="linear-gradient-32" x1="1.02" y1="0.496" x2="-0.423" y2="0.593" xlink:href="#linear-gradient"/>
  </defs>
  <rect id="RECTANGLE_1_" width="1369" height="912" fill="url(#linear-gradient)"/>
  <g id="ELEMENT_2_">
    <g id="Group_2" data-name="Group 2" clip-path="url(#clip-path)">
      <path id="Path_7" data-name="Path 7" d="M34.466,850.609S-36.692,462.89,568.332,547.732c416.182,58.386,307.62-294.484,605.206-433.88,290.47-136.112,510.511,281.164,761.571-27.916V847.69Z" transform="translate(26.292 70.61)" fill="url(#linear-gradient-2)"/>
    </g>
    <g id="Group_3" data-name="Group 3" clip-path="url(#clip-path)">
      <path id="Path_8" data-name="Path 8" d="M467.656,144.874l-22.26,22.26a10.022,10.022,0,0,1-14.049,0h0a10.022,10.022,0,0,1,0-14.049l12.225-12.225a10.022,10.022,0,0,0,0-14.049l-.912-.912a10.022,10.022,0,0,0-14.049,0L386.1,167.864a10.022,10.022,0,0,0,0,14.049l.912.912a10.022,10.022,0,0,0,14.049,0l6.933-6.933a10.022,10.022,0,0,1,14.049,0h0a10.022,10.022,0,0,1,0,14.049l-8.028,8.028a10.022,10.022,0,0,0,0,14.049l.912.912a10.022,10.022,0,0,0,14.049,0L482.8,159.653a10.022,10.022,0,0,0,0-14.049l-.912-.912A10.43,10.43,0,0,0,467.656,144.874Z" transform="translate(315.991 101.441)" fill="url(#linear-gradient-3)"/>
    </g>
    <g id="Group_4" data-name="Group 4" clip-path="url(#clip-path)">
      <path id="Path_9" data-name="Path 9" d="M777.624,158.447l-37.4,37.4a16.63,16.63,0,0,1-23.354,0h0a16.63,16.63,0,0,1,0-23.354L737.3,152.061a16.63,16.63,0,0,0,0-23.354l-1.642-1.642a16.63,16.63,0,0,0-23.354,0l-71.34,70.245a16.63,16.63,0,0,0,0,23.354l1.642,1.642a16.63,16.63,0,0,0,23.354,0l11.677-11.677a16.63,16.63,0,0,1,23.354,0h0a16.63,16.63,0,0,1,0,23.354l-13.5,13.5a16.63,16.63,0,0,0,0,23.354l1.642,1.642a16.63,16.63,0,0,0,23.354,0l90.133-89.221a16.63,16.63,0,0,0,0-23.354l-1.642-1.642A16.465,16.465,0,0,0,777.624,158.447Z" transform="translate(524.563 100.823)" fill="url(#linear-gradient-4)"/>
    </g>
    <g id="Group_5" data-name="Group 5" clip-path="url(#clip-path)">
      <path id="Path_10" data-name="Path 10" d="M367.363,408.006l-19.158,19.158a21.254,21.254,0,0,1-29.923,0h0a21.254,21.254,0,0,1,0-29.923l19.158-19.158a21.254,21.254,0,0,1,29.923,0h0A21.254,21.254,0,0,1,367.363,408.006Z" transform="translate(257.365 306.674)" fill="url(#linear-gradient-5)"/>
    </g>
    <g id="Group_6" data-name="Group 6" clip-path="url(#clip-path)">
      <path id="Path_11" data-name="Path 11" d="M356.176,374.15,112.05,618.276a45.591,45.591,0,0,1-64.589,0h0a45.59,45.59,0,0,1,0-64.589L291.586,309.561a45.591,45.591,0,0,1,64.589,0h0A45.591,45.591,0,0,1,356.176,374.15Z" transform="translate(28.076 244.193)" fill="url(#linear-gradient-6)"/>
    </g>
    <g id="Group_7" data-name="Group 7" clip-path="url(#clip-path)">
      <path id="Path_12" data-name="Path 12" d="M218.6,460.663h0a3.075,3.075,0,0,1-3.1-3.1v-14.6a3.075,3.075,0,0,1,3.1-3.1h11.312a3.075,3.075,0,0,0,3.1-3.1V425.449a3.075,3.075,0,0,1,3.1-3.1H247.43a3.075,3.075,0,0,0,3.1-3.1V407.933a3.075,3.075,0,0,1,3.1-3.1h11.312a3.075,3.075,0,0,0,3.1-3.1V390.417a3.075,3.075,0,0,1,3.1-3.1h11.312a3.075,3.075,0,0,0,3.1-3.1V372.9a3.075,3.075,0,0,1,3.1-3.1h14.6a3.075,3.075,0,0,1,3.1,3.1h0a3.075,3.075,0,0,1-3.1,3.1h-8.21a3.075,3.075,0,0,0-3.1,3.1v11.312a3.075,3.075,0,0,1-3.1,3.1H277.535a3.075,3.075,0,0,0-3.1,3.1v11.312a3.075,3.075,0,0,1-3.1,3.1H260.019a3.075,3.075,0,0,0-3.1,3.1v11.312a3.075,3.075,0,0,1-3.1,3.1H242.5a3.075,3.075,0,0,0-3.1,3.1v11.312a3.075,3.075,0,0,1-3.1,3.1H224.988a3.075,3.075,0,0,0-3.1,3.1v8.21A3.271,3.271,0,0,1,218.6,460.663Z" transform="translate(177.692 304.921)" fill="#f50057"/>
    </g>
    <g id="Group_8" data-name="Group 8" clip-path="url(#clip-path)">
      <path id="Path_13" data-name="Path 13" d="M310.5,336.447a14.325,14.325,0,1,1,14.049-14.414C324.912,329.7,318.526,336.265,310.5,336.447Zm-.365-22.077a7.755,7.755,0,1,0,7.846,7.663A7.636,7.636,0,0,0,310.133,314.37Z" transform="translate(243.985 253.797)" fill="url(#linear-gradient-7)"/>
    </g>
    <g id="Group_9" data-name="Group 9" clip-path="url(#clip-path)">
      <path id="Path_14" data-name="Path 14" d="M465.3,108.214a7.208,7.208,0,1,1,7.116-7.3A7.284,7.284,0,0,1,465.3,108.214Zm-.183-10.947a3.924,3.924,0,1,0,4.014,3.832C468.947,98.909,467.123,97.084,465.116,97.267Z" transform="translate(377.648 77.344)" fill="url(#linear-gradient-8)"/>
    </g>
    <g id="Group_10" data-name="Group 10" clip-path="url(#clip-path)">
      <path id="Path_15" data-name="Path 15" d="M573.6,289.514a7.208,7.208,0,1,1,7.116-7.3A7.4,7.4,0,0,1,573.6,289.514Zm-.182-11.13a3.924,3.924,0,1,0,4.014,3.832A4.013,4.013,0,0,0,573.416,278.384Z" transform="translate(466.947 226.836)" fill="url(#linear-gradient-9)"/>
    </g>
    <g id="Group_11" data-name="Group 11" clip-path="url(#clip-path)">
      <path id="Path_16" data-name="Path 16" d="M56.608,238.6A22.355,22.355,0,1,1,78.5,215.8,22.4,22.4,0,0,1,56.608,238.6Zm-.547-34.3a12.043,12.043,0,1,0,12.225,11.86A12.028,12.028,0,0,0,56.061,204.3Z" transform="translate(27.869 159.881)" fill="url(#linear-gradient-10)"/>
    </g>
    <g id="Group_12" data-name="Group 12" clip-path="url(#clip-path)">
      <path id="Path_17" data-name="Path 17" d="M518.008,182A22.355,22.355,0,1,1,539.9,159.2,22.16,22.16,0,0,1,518.008,182Zm-.547-34.3a12.043,12.043,0,1,0,12.225,11.86A12.028,12.028,0,0,0,517.461,147.7Z" transform="translate(408.32 113.211)" fill="#f50057"/>
    </g>
    <g id="Group_13" data-name="Group 13" clip-path="url(#clip-path)">
      <path id="Path_18" data-name="Path 18" d="M396.908,451.1A22.355,22.355,0,1,1,418.8,428.3,22.4,22.4,0,0,1,396.908,451.1Zm-.73-34.484a12.043,12.043,0,1,0,12.225,11.86A12.035,12.035,0,0,0,396.178,416.619Z" transform="translate(308.466 335.099)" fill="#f50057"/>
    </g>
    <g id="Group_14" data-name="Group 14" clip-path="url(#clip-path)">
      <path id="Path_19" data-name="Path 19" d="M365.127,126.686a12.043,12.043,0,1,1,11.86-12.225A12.273,12.273,0,0,1,365.127,126.686Zm-.365-18.428a6.478,6.478,0,1,0,6.568,6.386A6.5,6.5,0,0,0,364.762,108.258Z" transform="translate(290.984 84.598)" fill="#f50057"/>
    </g>
    <g id="Group_15" data-name="Group 15" clip-path="url(#clip-path)">
      <path id="Path_20" data-name="Path 20" d="M556.593,443.41a63.414,63.414,0,1,1,62.218-64.589A63.633,63.633,0,0,1,556.593,443.41Zm-1.642-97.431a34.034,34.034,0,1,0,34.667,33.389A34.034,34.034,0,0,0,554.951,345.979Z" transform="translate(405.679 261.051)" fill="url(#linear-gradient-11)"/>
    </g>
    <g id="Group_16" data-name="Group 16" clip-path="url(#clip-path)">
      <path id="Path_21" data-name="Path 21" d="M275.593,182.91a63.414,63.414,0,1,1,62.217-64.589A63.633,63.633,0,0,1,275.593,182.91Zm-1.642-97.431a34.034,34.034,0,1,0,34.667,33.389A34.034,34.034,0,0,0,273.951,85.479Z" transform="translate(173.978 46.254)" fill="url(#linear-gradient-11)"/>
    </g>
    <g id="Group_21" data-name="Group 21" clip-path="url(#clip-path)">
      <g id="Group_17" data-name="Group 17" transform="translate(897.683 133.193)">
        <path id="Path_22" data-name="Path 22" d="M508.421,105.842,492,89.421,508.421,73l4.744,4.561-11.86,11.86,11.86,11.677Z" transform="translate(-492 -73)" fill="#f50057"/>
      </g>
      <g id="Group_18" data-name="Group 18" transform="translate(918.118 133.193)">
        <path id="Path_23" data-name="Path 23" d="M519.621,105.842,503.2,89.421,519.621,73l4.561,4.561-11.86,11.86,11.86,11.677Z" transform="translate(-503.2 -73)" fill="#f50057"/>
      </g>
      <g id="Group_19" data-name="Group 19" transform="translate(938.37 133.193)">
        <path id="Path_24" data-name="Path 24" d="M530.721,105.842,514.3,89.421,530.721,73l4.561,4.561-11.677,11.86L535.282,101.1Z" transform="translate(-514.3 -73)" fill="#f50057"/>
      </g>
      <g id="Group_20" data-name="Group 20" transform="translate(958.623 133.193)">
        <path id="Path_25" data-name="Path 25" d="M541.821,105.842,525.4,89.421,541.821,73l4.561,4.561-11.677,11.86L546.382,101.1Z" transform="translate(-525.4 -73)" fill="#f50057"/>
      </g>
    </g>
    <g id="Group_26" data-name="Group 26" clip-path="url(#clip-path)">
      <g id="Group_22" data-name="Group 22" transform="translate(672.35 545.543)">
        <path id="Path_26" data-name="Path 26" d="M384.921,331.842,368.5,315.421,384.921,299l4.744,4.561-11.86,11.86,11.86,11.677Z" transform="translate(-368.5 -299)" fill="#f50057"/>
      </g>
      <g id="Group_23" data-name="Group 23" transform="translate(692.785 545.543)">
        <path id="Path_27" data-name="Path 27" d="M396.121,331.842,379.7,315.421,396.121,299l4.561,4.561-11.86,11.86,11.86,11.677Z" transform="translate(-379.7 -299)" fill="#f50057"/>
      </g>
      <g id="Group_24" data-name="Group 24" transform="translate(713.037 545.543)">
        <path id="Path_28" data-name="Path 28" d="M407.221,331.842,390.8,315.421,407.221,299l4.561,4.561-11.677,11.86L411.782,327.1Z" transform="translate(-390.8 -299)" fill="#f50057"/>
      </g>
      <g id="Group_25" data-name="Group 25" transform="translate(733.29 545.543)">
        <path id="Path_29" data-name="Path 29" d="M418.321,331.842,401.9,315.421,418.321,299l4.561,4.561-11.677,11.86L422.882,327.1Z" transform="translate(-401.9 -299)" fill="#f50057"/>
      </g>
    </g>
    <g id="Group_27" data-name="Group 27" clip-path="url(#clip-path)">
      <path id="Path_30" data-name="Path 30" d="M277.7,572.482S293.939,429.62,430.963,465.016c205.445,53.277,157.459-60.21,318.933-52.547,149.979,7.116,149.249,160.014,149.249,160.014Z" transform="translate(228.98 339.797)" fill="url(#linear-gradient-13)"/>
      <path id="Path_31" data-name="Path 31" d="M458.227,621.591s-5.109-77,80.1-77,151.621-2.737,170.6-118.414c15.509-94.33,161.838-95.424,193.768-18.246s87.944,77.179,87.944,77.179V621.591Z" transform="translate(377.786 290.688)" fill="url(#linear-gradient-14)"/>
    </g>
    <g id="Group_28" data-name="Group 28" clip-path="url(#clip-path)">
      <path id="Path_32" data-name="Path 32" d="M41.484,318.024h0A3.271,3.271,0,0,1,38.2,314.74V299.6a3.271,3.271,0,0,1,3.284-3.284h11.86a3.271,3.271,0,0,0,3.284-3.284v-11.86a3.271,3.271,0,0,1,3.284-3.284h11.86a3.271,3.271,0,0,0,3.284-3.284V262.74a3.271,3.271,0,0,1,3.284-3.284H90.2a3.271,3.271,0,0,0,3.284-3.284v-11.86a3.271,3.271,0,0,1,3.284-3.284h11.86a3.271,3.271,0,0,0,3.284-3.284v-11.86A3.271,3.271,0,0,1,115.2,222.6H130.34a3.271,3.271,0,0,1,3.284,3.284h0a3.271,3.271,0,0,1-3.284,3.284h-8.575a3.271,3.271,0,0,0-3.284,3.284v11.86A3.271,3.271,0,0,1,115.2,247.6h-11.86a3.271,3.271,0,0,0-3.284,3.284v11.86a3.271,3.271,0,0,1-3.284,3.284H84.909a3.271,3.271,0,0,0-3.284,3.284v11.86a3.271,3.271,0,0,1-3.284,3.284H66.481a3.271,3.271,0,0,0-3.284,3.284V299.6a3.271,3.271,0,0,1-3.284,3.284H48.053a3.271,3.271,0,0,0-3.284,3.284v8.575A3.271,3.271,0,0,1,41.484,318.024Z" transform="translate(31.498 183.547)" fill="url(#linear-gradient-15)"/>
    </g>
    <g id="Group_29" data-name="Group 29" clip-path="url(#clip-path)">
      <path id="Path_33" data-name="Path 33" d="M279.112,225.706,110.706,394.112a21.254,21.254,0,0,1-29.923,0h0a21.254,21.254,0,0,1,0-29.923L249.19,195.783a21.254,21.254,0,0,1,29.923,0h0A21.254,21.254,0,0,1,279.112,225.706Z" transform="translate(61.533 156.357)" fill="url(#linear-gradient-16)"/>
    </g>
    <g id="Group_30" data-name="Group 30" clip-path="url(#clip-path)">
      <path id="Path_34" data-name="Path 34" d="M791.883,277.378,688.978,380.283a38.1,38.1,0,0,1-54.007,0h0a38.1,38.1,0,0,1,0-54.007L737.876,223.371a38.1,38.1,0,0,1,54.007,0h0A38.1,38.1,0,0,1,791.883,277.378Z" transform="translate(514.318 174.93)" fill="url(#linear-gradient-17)"/>
    </g>
    <g id="Group_31" data-name="Group 31" clip-path="url(#clip-path)">
      <path id="Path_35" data-name="Path 35" d="M860.993,257.62,699.52,419.093a17.51,17.51,0,0,1-24.631,0h0a17.51,17.51,0,0,1,0-24.632L836.362,232.988a17.51,17.51,0,0,1,24.631,0h0A17.184,17.184,0,0,1,860.993,257.62Z" transform="translate(552.309 187.937)" fill="url(#linear-gradient-18)"/>
    </g>
    <g id="Group_32" data-name="Group 32" clip-path="url(#clip-path)">
      <path id="Path_36" data-name="Path 36" d="M304.646,455.158l-15.326-15.326,15.326-15.144-9.488-9.488-15.326,15.144L264.688,415.2l-9.488,9.488,15.326,15.144L255.2,455.158l9.488,9.488,15.144-15.326,15.326,15.326Z" transform="translate(210.427 342.356)" fill="url(#linear-gradient-19)"/>
    </g>
    <g id="Group_33" data-name="Group 33" clip-path="url(#clip-path)">
      <path id="Path_37" data-name="Path 37" d="M630.246,248.058,615.1,232.732l15.144-15.144-9.488-9.488-15.144,15.144L590.288,208.1l-9.488,9.488,15.326,15.144L580.8,248.058l9.488,9.488,15.326-15.326,15.144,15.326Z" transform="translate(478.903 171.591)" fill="url(#linear-gradient-20)"/>
    </g>
    <g id="Group_34" data-name="Group 34" clip-path="url(#clip-path)">
      <path id="Path_38" data-name="Path 38" d="M239.028,240.288,229.54,230.8l-15.326,15.326L198.888,230.8l-9.488,9.488,15.326,15.144L189.4,270.758l9.488,9.488,15.326-15.326,15.326,15.326,9.488-9.488L223.7,255.432Z" transform="translate(156.171 190.308)" fill="url(#linear-gradient-21)"/>
    </g>
    <g id="Group_35" data-name="Group 35" clip-path="url(#clip-path)">
      <path id="Path_39" data-name="Path 39" d="M759.563,0s28.463,154.9-213.291,120.968C379.873,97.614,423.3,238.652,304.336,294.3,188.294,348.855,100.351,182.091,0,305.613V1.095Z" fill="url(#linear-gradient-22)"/>
      <path id="Path_40" data-name="Path 40" d="M609.191.6s4.744,116.407-164.21,69.333c-126.807-35.4-158.919,114.217-259.452,114.217-73.712,0-163.3-43.607-136.659-183.551H609.191Z" transform="translate(36.337 0.495)" fill="url(#linear-gradient-23)"/>
    </g>
    <g id="Group_37" data-name="Group 37" clip-path="url(#clip-path)">
      <g id="Group_36" data-name="Group 36" transform="translate(0 633.726)">
        <path id="Path_41" data-name="Path 41" d="M0,357.674s108.561-44.154,141.038,49.993c32.477,93.965,196.14-47.256,196.14,97.431,0,82.835,148.519,24.267,109.838,120.968H0Z" transform="translate(0 -347.331)" fill="url(#linear-gradient-24)"/>
        <path id="Path_42" data-name="Path 42" d="M334.128,556.977A151.808,151.808,0,0,0,184.514,430.9c-74.989,0-137.389,54.554-149.614,126.077Z" transform="translate(28.777 -278.424)" fill="url(#linear-gradient-25)"/>
      </g>
    </g>
    <g id="Group_38" data-name="Group 38" clip-path="url(#clip-path)">
      <path id="Path_43" data-name="Path 43" d="M467.008,29.671l-4.561,4.561-4.561-4.561a2.838,2.838,0,0,0-4.014,4.014l4.561,4.561-4.561,4.561a2.838,2.838,0,0,0,4.014,4.014l4.561-4.561,4.561,4.561a2.838,2.838,0,1,0,4.014-4.014l-4.561-4.561,4.561-4.561a2.838,2.838,0,1,0-4.014-4.014Z" transform="translate(373.566 23.788)" fill="#f50057"/>
    </g>
    <g id="Group_39" data-name="Group 39" clip-path="url(#clip-path)">
      <path id="Path_44" data-name="Path 44" d="M445.665,381.723h-6.386v-6.386a2.737,2.737,0,0,0-5.474,0v6.386h-6.568a2.737,2.737,0,1,0,0,5.474h6.386v6.386a2.737,2.737,0,1,0,5.474,0V387.2h6.386a2.687,2.687,0,0,0,2.737-2.737A2.539,2.539,0,0,0,445.665,381.723Z" transform="translate(350.025 307.23)" fill="#f50057"/>
    </g>
    <g id="Group_40" data-name="Group 40" clip-path="url(#clip-path)">
      <path id="Path_45" data-name="Path 45" d="M617.482,161.523H611.1v-6.386a2.737,2.737,0,1,0-5.474,0v6.386h-6.386a2.737,2.737,0,0,0,0,5.474h6.386v6.386a2.737,2.737,0,1,0,5.474,0V167h6.386a2.687,2.687,0,0,0,2.737-2.737A2.582,2.582,0,0,0,617.482,161.523Z" transform="translate(491.849 125.663)" fill="url(#linear-gradient-26)"/>
    </g>
    <g id="Group_41" data-name="Group 41" clip-path="url(#clip-path)">
      <path id="Path_46" data-name="Path 46" d="M309.682,171.323H303.3v-6.386a2.737,2.737,0,1,0-5.474,0v6.386h-6.386a2.737,2.737,0,0,0,0,5.474h6.386v6.386a2.737,2.737,0,1,0,5.474,0V176.8h6.386a2.687,2.687,0,0,0,2.737-2.737A2.806,2.806,0,0,0,309.682,171.323Z" transform="translate(238.05 133.743)" fill="url(#linear-gradient-27)"/>
    </g>
    <g id="Group_42" data-name="Group 42" clip-path="url(#clip-path)">
      <path id="Path_47" data-name="Path 47" d="M497.028.212s-5.291,81.01,81.193,65.684c93.052-16.421,80.1,79,161.473,79,66.6,0,34.667-90.863,93.052-98.526S878-.7,878-.7Z" transform="translate(409.777 -0.577)" fill="url(#linear-gradient-28)"/>
      <path id="Path_48" data-name="Path 48" d="M565.5,0A103.374,103.374,0,0,0,666.945,83.382,103.374,103.374,0,0,0,768.391,0Z" transform="translate(466.288)" fill="url(#linear-gradient-29)"/>
    </g>
    <g id="Group_43" data-name="Group 43" clip-path="url(#clip-path)">
      <path id="Path_49" data-name="Path 49" d="M0,244.4V352.049a53.871,53.871,0,0,0,52.365-53.824A53.993,53.993,0,0,0,0,244.4Z" transform="translate(0 201.522)" fill="url(#linear-gradient-30)"/>
    </g>
    <g id="Group_44" data-name="Group 44" clip-path="url(#clip-path)">
      <path id="Path_50" data-name="Path 50" d="M773.912,327.8a53.832,53.832,0,0,0,0,107.649Z" transform="translate(594.506 270.29)" fill="url(#linear-gradient-31)"/>
    </g>
    <g id="Group_45" data-name="Group 45" clip-path="url(#clip-path)">
      <path id="Path_51" data-name="Path 51" d="M786.94,21a82.658,82.658,0,0,0,0,165.3Z" transform="translate(581.478 17.316)" fill="url(#linear-gradient-32)"/>
    </g>
  </g>
</svg>
